<svg xmlns="http://www.w3.org/2000/svg" viewBox="0 0 64 64" width="64" height="64" role="img" aria-label="bbang.dev">
  <style>
    .ink { fill: #0a0a0a; }
    .frame { stroke: #0a0a0a; }
    @media (prefers-color-scheme: dark) {
      .ink { fill: #ffffff; }
      .frame { stroke: #ffffff; }
    }
  </style>
  <rect class="frame" x="1.25" y="1.25" width="61.5" height="61.5" fill="none" stroke-width="2.5"/>
  <g class="ink" transform="translate(16.83 50.33)">
    <path d="M11.34 -11.08Q11.34 -12.79 11.52 -14.75Q11.7 -16.72 12.27 -18.38Q12.84 -20.04 13.98 -21.12Q15.12 -22.21 17.03 -22.21Q18.38 -22.21 19.26 -21.64Q20.14 -21.07 20.71 -19.78Q21.28 -18.48 21.51 -16.33Q21.74 -14.19 21.74 -11.08Q21.74 -8.54 21.61 -6.5Q21.49 -4.45 21.04 -3Q20.6 -1.55 19.75 -0.78Q18.9 0 17.45 0Q15.27 0 14.06 -1.11Q12.84 -2.23 12.22 -3.91Q11.6 -5.59 11.47 -7.53Q11.34 -9.47 11.34 -11.08ZM5.02 -36.6L5.02 -0.72L1.6 -0.72L1.6 0L11.23 0L11.23 -3.83L11.34 -3.83Q12.17 -1.66 13.64 -0.49Q15.12 0.67 17.45 0.67Q19.98 0.67 22.05 -0.31Q24.13 -1.29 25.6 -2.93Q27.08 -4.56 27.9 -6.68Q28.73 -8.8 28.73 -11.13Q28.73 -12.94 28.09 -15.01Q27.44 -17.08 26.07 -18.84Q24.69 -20.6 22.57 -21.77Q20.45 -22.93 17.45 -22.93Q15.12 -22.93 13.67 -21.85Q12.22 -20.76 11.44 -18.59L11.34 -18.59L11.34 -37.33L1.6 -37.33L1.6 -36.6Z"/>
  </g>
</svg>
