<svg xmlns="http://www.w3.org/2000/svg" viewBox="0 0 569.76 156.8" width="570" height="157" role="img" aria-label="bbang.dev">
  <g fill="#0a0a0a" transform="translate(2.28 92.52)">
    <path d="M26.28 -25.68Q26.28 -29.64 26.7 -34.2Q27.12 -38.76 28.44 -42.6Q29.76 -46.44 32.4 -48.96Q35.04 -51.48 39.48 -51.48Q42.6 -51.48 44.64 -50.16Q46.68 -48.84 48 -45.84Q49.32 -42.84 49.86 -37.86Q50.4 -32.88 50.4 -25.68Q50.4 -19.8 50.1 -15.06Q49.8 -10.32 48.78 -6.96Q47.76 -3.6 45.78 -1.8Q43.8 0 40.44 0Q35.4 0 32.58 -2.58Q29.76 -5.16 28.32 -9.06Q26.88 -12.96 26.58 -17.46Q26.28 -21.96 26.28 -25.68ZM11.64 -84.84L11.64 -1.68L3.72 -1.68L3.72 0L26.04 0L26.04 -8.88L26.28 -8.88Q28.2 -3.84 31.62 -1.14Q35.04 1.56 40.44 1.56Q46.32 1.56 51.12 -0.72Q55.92 -3 59.34 -6.78Q62.76 -10.56 64.68 -15.48Q66.6 -20.4 66.6 -25.8Q66.6 -30 65.1 -34.8Q63.6 -39.6 60.42 -43.68Q57.24 -47.76 52.32 -50.46Q47.4 -53.16 40.44 -53.16Q35.04 -53.16 31.68 -50.64Q28.32 -48.12 26.52 -43.08L26.28 -43.08L26.28 -86.52L3.72 -86.52L3.72 -84.84ZM97.44 -25.68Q97.44 -29.64 97.86 -34.2Q98.28 -38.76 99.6 -42.6Q100.92 -46.44 103.56 -48.96Q106.2 -51.48 110.64 -51.48Q113.76 -51.48 115.8 -50.16Q117.84 -48.84 119.16 -45.84Q120.48 -42.84 121.02 -37.86Q121.56 -32.88 121.56 -25.68Q121.56 -19.8 121.26 -15.06Q120.96 -10.32 119.94 -6.96Q118.92 -3.6 116.94 -1.8Q114.96 0 111.6 0Q106.56 0 103.74 -2.58Q100.92 -5.16 99.48 -9.06Q98.04 -12.96 97.74 -17.46Q97.44 -21.96 97.44 -25.68ZM82.8 -84.84L82.8 -1.68L74.88 -1.68L74.88 0L97.2 0L97.2 -8.88L97.44 -8.88Q99.36 -3.84 102.78 -1.14Q106.2 1.56 111.6 1.56Q117.48 1.56 122.28 -0.72Q127.08 -3 130.5 -6.78Q133.92 -10.56 135.84 -15.48Q137.76 -20.4 137.76 -25.8Q137.76 -30 136.26 -34.8Q134.76 -39.6 131.58 -43.68Q128.4 -47.76 123.48 -50.46Q118.56 -53.16 111.6 -53.16Q106.2 -53.16 102.84 -50.64Q99.48 -48.12 97.68 -43.08L97.44 -43.08L97.44 -86.52L74.88 -86.52L74.88 -84.84ZM178.92 -29.76L178.92 -13.92Q178.92 -10.44 178.2 -7.98Q177.48 -5.52 176.28 -4.02Q175.08 -2.52 173.58 -1.8Q172.08 -1.08 170.52 -1.08Q167.76 -1.08 166.2 -2.34Q164.64 -3.6 163.86 -5.4Q163.08 -7.2 162.9 -9.12Q162.72 -11.04 162.72 -12.48Q162.72 -16.08 163.86 -18.36Q165 -20.64 166.8 -22.2Q168.6 -23.76 170.88 -24.78Q173.16 -25.8 175.44 -26.88Q177.12 -27.72 177.78 -28.38Q178.44 -29.04 178.68 -29.76ZM203.16 -1.92L202.08 -3Q201.12 -1.92 200.1 -1.32Q199.08 -0.72 197.52 -0.72Q194.88 -0.72 194.22 -2.46Q193.56 -4.2 193.56 -6.48L193.56 -36.24Q193.56 -41.28 191.82 -44.58Q190.08 -47.88 187.14 -49.8Q184.2 -51.72 180.18 -52.44Q176.16 -53.16 171.6 -53.16Q167.64 -53.16 163.98 -52.32Q160.32 -51.48 157.44 -49.86Q154.56 -48.24 152.82 -45.78Q151.08 -43.32 151.08 -40.2Q151.08 -38.16 151.74 -36.96Q152.4 -35.76 153.36 -35.1Q154.32 -34.44 155.58 -34.26Q156.84 -34.08 158.04 -34.08Q158.88 -34.08 160.14 -34.14Q161.4 -34.2 162.54 -34.68Q163.68 -35.16 164.52 -36.18Q165.36 -37.2 165.36 -39Q165.36 -39.36 165.24 -40.32Q165.12 -41.28 165 -42.36Q164.88 -43.44 164.76 -44.34Q164.64 -45.24 164.64 -45.6Q164.64 -48.96 166.68 -50.22Q168.72 -51.48 171.48 -51.48Q175.8 -51.48 177.36 -48.84Q178.92 -46.2 178.92 -42.96L178.92 -35.64Q178.92 -33.36 178.26 -31.92Q177.6 -30.48 175.92 -29.34Q174.24 -28.2 171.18 -27.18Q168.12 -26.16 163.2 -24.72Q160.2 -23.76 157.38 -22.74Q154.56 -21.72 152.34 -20.1Q150.12 -18.48 148.74 -16.14Q147.36 -13.8 147.36 -10.32Q147.36 -6.96 148.92 -4.62Q150.48 -2.28 153 -0.96Q155.52 0.36 158.52 0.96Q161.52 1.56 164.4 1.56Q170.76 1.56 174.12 -0.12Q177.48 -1.8 179.4 -6.6L179.64 -6.6Q180.36 -2.76 183.3 -0.6Q186.24 1.56 192.36 1.56Q195.12 1.56 198.3 1.08Q201.48 0.6 203.16 -1.92ZM209.64 -1.68L209.64 0L239.76 0L239.76 -1.68L232.2 -1.68L232.2 -27.36Q232.2 -32.88 233.4 -36.96Q234.6 -41.04 236.58 -43.8Q238.56 -46.56 241.2 -47.94Q243.84 -49.32 246.72 -49.32Q250.2 -49.32 252.24 -46.98Q254.28 -44.64 254.28 -39.6L254.28 -1.68L246.84 -1.68L246.84 0L276.96 0L276.96 -1.68L268.92 -1.68L268.92 -35.52Q268.92 -43.44 264.54 -48Q260.16 -52.56 252.24 -52.56Q246.84 -52.56 243.24 -50.94Q239.64 -49.32 237.36 -47.16Q235.08 -45 233.88 -42.78Q232.68 -40.56 232.2 -39.48L231.96 -39.48L231.96 -51.48L209.64 -51.48L209.64 -49.8L217.56 -49.8L217.56 -1.68ZM297 18.72Q297 13.92 298.98 11.04Q300.96 8.16 304.56 5.28L317.04 5.28Q318.84 5.28 321 5.76Q323.16 6.24 324.96 7.56Q326.76 8.88 327.96 11.1Q329.16 13.32 329.16 16.92Q329.16 20.52 327.72 23.52Q326.28 26.52 323.94 28.68Q321.6 30.84 318.48 32.04Q315.36 33.24 311.88 33.24Q307.32 33.24 304.44 31.8Q301.56 30.36 299.88 28.14Q298.2 25.92 297.6 23.4Q297 20.88 297 18.72ZM310.92 -20.04Q308.88 -20.04 307.08 -20.52Q305.28 -21 304.02 -22.74Q302.76 -24.48 302.04 -27.84Q301.32 -31.2 301.32 -36.84Q301.32 -39.6 301.68 -42.24Q302.04 -44.88 303.06 -46.92Q304.08 -48.96 306 -50.22Q307.92 -51.48 310.92 -51.48Q314.16 -51.48 315.96 -50.28Q317.76 -49.08 318.72 -46.92Q319.68 -44.76 319.92 -41.82Q320.16 -38.88 320.16 -35.4Q320.16 -30.48 319.5 -27.42Q318.84 -24.36 317.64 -22.74Q316.44 -21.12 314.76 -20.58Q313.08 -20.04 310.92 -20.04ZM314.52 -8.52L301.32 -8.52Q297.24 -8.52 294.84 -9.96Q292.44 -11.4 292.44 -14.4Q292.44 -15.72 293.04 -17.34Q293.64 -18.96 297.12 -21.24Q299.52 -20.28 303.24 -19.32Q306.96 -18.36 311.76 -18.36Q317.76 -18.36 321.84 -19.86Q325.92 -21.36 328.5 -23.76Q331.08 -26.16 332.22 -29.1Q333.36 -32.04 333.36 -35.04Q333.36 -39.96 331.68 -42.54Q330 -45.12 328.56 -46.68Q330.96 -48.36 331.92 -48.9Q332.88 -49.44 333.6 -49.44Q334.92 -49.44 335.16 -48.6Q335.4 -47.76 335.64 -46.08Q335.76 -45.6 335.94 -44.82Q336.12 -44.04 336.66 -43.38Q337.2 -42.72 338.22 -42.24Q339.24 -41.76 340.92 -41.76Q343.32 -41.76 344.76 -43.14Q346.2 -44.52 346.2 -46.92Q346.2 -49.68 344.46 -51.42Q342.72 -53.16 339.24 -53.16Q335.28 -53.16 332.88 -51.78Q330.48 -50.4 327.48 -47.64Q324.72 -49.8 320.82 -51.48Q316.92 -53.16 311.52 -53.16Q306.12 -53.16 301.74 -51.72Q297.36 -50.28 294.36 -47.82Q291.36 -45.36 289.74 -42.06Q288.12 -38.76 288.12 -35.04Q288.12 -32.4 288.9 -30.42Q289.68 -28.44 290.82 -26.94Q291.96 -25.44 293.28 -24.3Q294.6 -23.16 295.68 -22.32Q291.96 -20.28 289.74 -18Q287.52 -15.72 286.44 -13.62Q285.36 -11.52 285.06 -9.96Q284.76 -8.4 284.76 -7.8Q284.76 -4.08 286.56 -1.56Q288.36 0.96 291 2.4Q293.64 3.84 296.7 4.44Q299.76 5.04 302.16 5.04L302.16 5.28Q299.4 6 296.58 7.32Q293.76 8.64 291.42 10.5Q289.08 12.36 287.64 14.88Q286.2 17.4 286.2 20.64Q286.2 22.32 286.92 24.78Q287.64 27.24 290.04 29.58Q292.44 31.92 296.94 33.6Q301.44 35.28 309 35.28Q315.72 35.28 320.94 33.12Q326.16 30.96 329.88 27.48Q333.6 24 335.52 19.56Q337.44 15.12 337.44 10.44Q337.44 4.92 335.52 1.26Q333.6 -2.4 330.48 -4.56Q327.36 -6.72 323.22 -7.62Q319.08 -8.52 314.52 -8.52ZM349.8 -7.32Q349.8 -3.84 352.32 -1.38Q354.84 1.08 358.32 1.08Q361.8 1.08 364.32 -1.38Q366.84 -3.84 366.84 -7.32Q366.84 -10.8 364.32 -13.32Q361.8 -15.84 358.32 -15.84Q354.84 -15.84 352.32 -13.32Q349.8 -10.8 349.8 -7.32ZM419.88 -25.68Q419.88 -21.96 419.58 -17.46Q419.28 -12.96 417.84 -9.06Q416.4 -5.16 413.58 -2.58Q410.76 0 405.72 0Q402.36 0 400.38 -1.8Q398.4 -3.6 397.38 -6.96Q396.36 -10.32 396.06 -15.06Q395.76 -19.8 395.76 -25.68Q395.76 -32.88 396.3 -37.86Q396.84 -42.84 398.16 -45.84Q399.48 -48.84 401.58 -50.16Q403.68 -51.48 406.68 -51.48Q411.12 -51.48 413.76 -48.96Q416.4 -46.44 417.72 -42.6Q419.04 -38.76 419.46 -34.2Q419.88 -29.64 419.88 -25.68ZM434.52 -1.68L434.52 -86.52L411.72 -86.52L411.72 -84.84L419.88 -84.84L419.88 -43.08L419.64 -43.08Q417.84 -48.12 414.48 -50.64Q411.12 -53.16 405.72 -53.16Q398.76 -53.16 393.84 -50.46Q388.92 -47.76 385.74 -43.68Q382.56 -39.6 381.06 -34.8Q379.56 -30 379.56 -25.8Q379.56 -20.4 381.48 -15.48Q383.4 -10.56 386.82 -6.78Q390.24 -3 395.04 -0.72Q399.84 1.56 405.72 1.56Q411.12 1.56 414.54 -1.14Q417.96 -3.84 419.88 -8.88L420.12 -8.88L420.12 0L442.44 0L442.44 -1.68ZM485.76 -31.8L466.56 -31.8Q466.68 -34.92 466.98 -38.34Q467.28 -41.76 468.36 -44.7Q469.44 -47.64 471.66 -49.56Q473.88 -51.48 477.96 -51.48Q480.84 -51.48 482.46 -50.16Q484.08 -48.84 484.8 -46.92Q485.52 -45 485.64 -43.08Q485.76 -41.16 485.76 -39.84ZM466.56 -30.12L501.96 -30.12Q501.96 -36.24 499.8 -40.62Q497.64 -45 494.28 -47.76Q490.92 -50.52 486.72 -51.84Q482.52 -53.16 478.32 -53.16Q472.44 -53.16 467.34 -50.82Q462.24 -48.48 458.46 -44.7Q454.68 -40.92 452.52 -36Q450.36 -31.08 450.36 -25.92Q450.36 -19.44 452.64 -14.34Q454.92 -9.24 458.94 -5.7Q462.96 -2.16 468.36 -0.3Q473.76 1.56 480 1.56Q485.28 1.56 489 0.06Q492.72 -1.44 495.24 -3.66Q497.76 -5.88 499.2 -8.46Q500.64 -11.04 501.24 -13.32L499.56 -13.92Q499.44 -12.84 498.42 -10.56Q497.4 -8.28 495.3 -5.94Q493.2 -3.6 489.9 -1.8Q486.6 0 481.8 0Q476.4 0 473.4 -2.28Q470.4 -4.56 468.84 -8.1Q467.28 -11.64 466.92 -16.02Q466.56 -20.4 466.56 -24.72ZM503.4 -51.48L503.4 -49.8L509.88 -49.8L533.76 3.24L534.72 3.24L555.96 -49.8L561.48 -49.8L561.48 -51.48L544.68 -51.48L544.68 -49.8L553.92 -49.8L540.84 -16.56L526.08 -49.8L534.72 -49.8L534.72 -51.48Z"/>
  </g>
  <rect x="0" y="153.8" width="569.76" height="3" fill="#0a0a0a"/>
</svg>
