<svg xmlns="http://www.w3.org/2000/svg" width="1200" height="630" viewBox="0 0 1200 630" role="img" aria-label="bbang.dev — In the power of records, and of people.">
  <rect width="1200" height="630" fill="#ffffff"/>
  <rect x="32" y="32" width="1136" height="566" fill="none" stroke="#0a0a0a" stroke-width="2"/>
  <g fill="#0a0a0a">
    <g transform="translate(92 136.11)"><path d="M7.28 -18.15L7.28 -0.36L4.89 -0.36L4.89 0L13.44 0L13.44 -0.36L11.05 -0.36L11.05 -18.15L11.99 -18.15Q12.95 -18.15 13.7 -17.95Q14.46 -17.76 15.05 -17.28Q15.65 -16.8 16.12 -15.94Q16.59 -15.08 16.98 -13.75L17.32 -13.75L17.32 -18.51L1.01 -18.51L1.01 -13.75L1.35 -13.75Q1.74 -15.08 2.21 -15.94Q2.68 -16.8 3.28 -17.28Q3.87 -17.76 4.63 -17.95Q5.38 -18.15 6.34 -18.15ZM27.29 -18.51L27.29 -18.15L29.68 -18.15L29.68 -0.36L27.29 -0.36L27.29 0L43.91 0L43.91 -5.69L43.57 -5.69Q43.31 -4.58 42.81 -3.6Q42.32 -2.63 41.58 -1.9Q40.84 -1.17 39.88 -0.77Q38.91 -0.36 37.72 -0.36L33.45 -0.36L33.45 -9.75L35.2 -9.75Q36.11 -9.75 36.72 -9.44Q37.33 -9.13 37.74 -8.59Q38.16 -8.06 38.41 -7.36Q38.65 -6.66 38.84 -5.9L39.17 -5.9L39.17 -13.99L38.84 -13.99Q38.65 -13.1 38.37 -12.39Q38.08 -11.67 37.64 -11.17Q37.2 -10.66 36.53 -10.39Q35.87 -10.11 34.91 -10.11L33.45 -10.11L33.45 -18.15L37.59 -18.15Q38.86 -18.15 39.75 -17.67Q40.63 -17.19 41.19 -16.54Q41.75 -15.89 42.06 -15.2Q42.37 -14.51 42.5 -14.07L42.84 -14.07L42.84 -18.51ZM70.18 -13.21L70.18 -18.51L69.77 -18.51Q69.69 -18.15 69.51 -18.06Q69.33 -17.97 68.96 -17.97Q68.62 -17.97 68.13 -18.12Q67.64 -18.28 67.02 -18.45Q66.41 -18.62 65.7 -18.77Q64.98 -18.93 64.15 -18.93Q62.49 -18.93 60.76 -18.24Q59.03 -17.55 57.63 -16.28Q56.22 -15 55.33 -13.21Q54.43 -11.41 54.43 -9.2Q54.43 -7.18 55.23 -5.43Q56.04 -3.69 57.38 -2.4Q58.72 -1.12 60.49 -0.38Q62.25 0.36 64.15 0.36Q64.98 0.36 65.74 0.22Q66.49 0.08 67.13 -0.09Q67.77 -0.26 68.26 -0.4Q68.75 -0.55 69.07 -0.55Q69.43 -0.55 69.61 -0.43Q69.79 -0.31 69.92 0L70.34 0L70.34 -5.51L69.92 -5.51Q69.69 -4.45 69.2 -3.46Q68.7 -2.47 67.97 -1.7Q67.25 -0.94 66.3 -0.47Q65.35 0 64.18 0Q62.72 0 61.67 -0.42Q60.62 -0.83 59.95 -1.87Q59.29 -2.91 58.98 -4.68Q58.67 -6.45 58.67 -9.15Q58.67 -11.21 58.82 -12.93Q58.98 -14.66 59.54 -15.91Q60.1 -17.16 61.19 -17.86Q62.28 -18.56 64.18 -18.56Q65.58 -18.56 66.53 -18.06Q67.48 -17.55 68.12 -16.76Q68.75 -15.96 69.16 -15.01Q69.56 -14.07 69.85 -13.21ZM80.78 -18.51L80.78 -18.15L83.18 -18.15L83.18 -0.36L80.78 -0.36L80.78 0L89.34 0L89.34 -0.36L86.95 -0.36L86.95 -9.26L94.46 -9.26L94.46 -0.36L92.07 -0.36L92.07 0L100.62 0L100.62 -0.36L98.23 -0.36L98.23 -18.15L100.62 -18.15L100.62 -18.51L92.07 -18.51L92.07 -18.15L94.46 -18.15L94.46 -9.62L86.95 -9.62L86.95 -18.15L89.34 -18.15L89.34 -18.51ZM131.83 -10.11L131.83 -18.15Q132.12 -18.17 132.4 -18.2Q132.69 -18.23 132.98 -18.23Q133.96 -18.23 134.6 -17.97Q135.24 -17.71 135.6 -17.17Q135.97 -16.64 136.12 -15.82Q136.28 -15 136.28 -13.86Q136.28 -13.16 136.19 -12.48Q136.1 -11.8 135.76 -11.27Q135.42 -10.74 134.74 -10.43Q134.07 -10.11 132.9 -10.11ZM131.83 -0.36L131.83 -9.75L133.34 -9.75Q134.64 -9.75 135.35 -9.22Q136.07 -8.68 136.42 -7.96Q136.77 -7.23 136.85 -6.49Q136.93 -5.75 136.93 -5.3Q136.93 -3.72 136.68 -2.74Q136.43 -1.77 135.97 -1.22Q135.5 -0.68 134.83 -0.48Q134.17 -0.29 133.34 -0.29Q132.53 -0.29 131.83 -0.36ZM128.06 -18.15L128.06 -0.36L125.67 -0.36L125.67 0L129.6 0Q130.69 0 131.77 0.03Q132.85 0.05 133.94 0.05Q134.93 0.05 136.17 -0.17Q137.42 -0.39 138.53 -0.96Q139.63 -1.53 140.4 -2.52Q141.17 -3.51 141.17 -5.02Q141.17 -6.4 140.57 -7.31Q139.97 -8.22 139.06 -8.77Q138.15 -9.33 137.06 -9.59Q135.97 -9.85 134.95 -9.93L134.95 -10.04Q135.58 -10.11 136.47 -10.37Q137.37 -10.63 138.2 -11.13Q139.03 -11.62 139.62 -12.39Q140.2 -13.16 140.2 -14.27Q140.2 -15.52 139.61 -16.35Q139.01 -17.19 138.08 -17.68Q137.16 -18.17 136.04 -18.38Q134.93 -18.59 133.91 -18.59Q132.82 -18.59 131.75 -18.55Q130.69 -18.51 129.6 -18.51L125.67 -18.51L125.67 -18.15ZM151.77 -18.51L151.77 -18.15L154.16 -18.15L154.16 -0.36L151.77 -0.36L151.77 0L168.25 0L168.25 -5.88L167.91 -5.88Q167.57 -4.37 166.96 -3.31Q166.35 -2.26 165.58 -1.6Q164.82 -0.94 163.95 -0.65Q163.08 -0.36 162.22 -0.36L157.93 -0.36L157.93 -18.15L160.32 -18.15L160.32 -18.51ZM182.67 -9.2Q182.67 -11.26 182.85 -12.97Q183.04 -14.69 183.61 -15.94Q184.18 -17.19 185.27 -17.87Q186.36 -18.56 188.18 -18.56Q190.13 -18.56 191.24 -17.82Q192.34 -17.08 192.89 -15.82Q193.44 -14.56 193.55 -12.91Q193.67 -11.26 193.67 -9.44Q193.67 -7.41 193.53 -5.68Q193.38 -3.95 192.84 -2.69Q192.29 -1.43 191.2 -0.71Q190.11 0 188.18 0Q186.73 0 185.68 -0.42Q184.62 -0.83 183.96 -1.88Q183.3 -2.94 182.98 -4.72Q182.67 -6.5 182.67 -9.2ZM178.43 -9.2Q178.43 -7.18 179.24 -5.43Q180.05 -3.69 181.39 -2.4Q182.72 -1.12 184.49 -0.38Q186.26 0.36 188.18 0.36Q190.13 0.36 191.89 -0.4Q193.64 -1.17 194.98 -2.5Q196.32 -3.82 197.11 -5.58Q197.91 -7.33 197.91 -9.28Q197.91 -11.52 197.06 -13.3Q196.22 -15.08 194.85 -16.33Q193.49 -17.58 191.73 -18.25Q189.98 -18.93 188.18 -18.93Q186.52 -18.93 184.78 -18.24Q183.04 -17.55 181.63 -16.28Q180.23 -15 179.33 -13.21Q178.43 -11.41 178.43 -9.2ZM224 -13.21L224 -18.51L223.56 -18.51Q223.43 -18.2 223.28 -18.08Q223.12 -17.97 222.76 -17.97Q222.42 -17.97 221.92 -18.12Q221.43 -18.28 220.81 -18.45Q220.18 -18.62 219.45 -18.77Q218.73 -18.93 217.95 -18.93Q216.28 -18.93 214.55 -18.24Q212.82 -17.55 211.42 -16.28Q210.02 -15 209.12 -13.21Q208.22 -11.41 208.22 -9.2Q208.22 -7.18 209.03 -5.43Q209.83 -3.69 211.17 -2.4Q212.51 -1.12 214.28 -0.38Q216.05 0.36 217.95 0.36Q219.14 0.36 219.99 0.12Q220.83 -0.13 221.48 -0.42Q222.13 -0.7 222.69 -0.95Q223.25 -1.2 223.87 -1.2Q224.19 -1.2 224.43 -1.05Q224.68 -0.91 224.73 -0.6L225.2 -0.6L225.2 -6.55L226.89 -6.55L226.89 -6.92L218.86 -6.92L218.86 -6.55L221.53 -6.55L221.53 -5.56Q221.53 -4.37 221.43 -3.35Q221.33 -2.34 220.95 -1.6Q220.57 -0.86 219.87 -0.43Q219.17 0 217.97 0Q216.52 0 215.46 -0.43Q214.41 -0.86 213.75 -1.85Q213.08 -2.83 212.77 -4.45Q212.46 -6.06 212.46 -8.42L212.46 -10.69Q212.46 -12.14 212.64 -13.56Q212.82 -14.98 213.41 -16.08Q213.99 -17.19 215.09 -17.87Q216.18 -18.56 217.97 -18.56Q220.23 -18.59 221.59 -17.17Q222.94 -15.76 223.61 -13.21Z"/></g>
    <rect x="92" y="156.48" width="150" height="2"/>
    <g transform="translate(92 319.65)"><path d="M28.91 -28.25Q28.91 -32.6 29.37 -37.62Q29.83 -42.64 31.28 -46.86Q32.74 -51.08 35.64 -53.86Q38.54 -56.63 43.43 -56.63Q46.86 -56.63 49.1 -55.18Q51.35 -53.72 52.8 -50.42Q54.25 -47.12 54.85 -41.65Q55.44 -36.17 55.44 -28.25Q55.44 -21.78 55.11 -16.57Q54.78 -11.35 53.66 -7.66Q52.54 -3.96 50.36 -1.98Q48.18 0 44.48 0Q38.94 0 35.84 -2.84Q32.74 -5.68 31.15 -9.97Q29.57 -14.26 29.24 -19.21Q28.91 -24.16 28.91 -28.25ZM12.8 -93.32L12.8 -1.85L4.09 -1.85L4.09 0L28.64 0L28.64 -9.77L28.91 -9.77Q31.02 -4.22 34.78 -1.25Q38.54 1.72 44.48 1.72Q50.95 1.72 56.23 -0.79Q61.51 -3.3 65.27 -7.46Q69.04 -11.62 71.15 -17.03Q73.26 -22.44 73.26 -28.38Q73.26 -33 71.61 -38.28Q69.96 -43.56 66.46 -48.05Q62.96 -52.54 57.55 -55.51Q52.14 -58.48 44.48 -58.48Q38.54 -58.48 34.85 -55.7Q31.15 -52.93 29.17 -47.39L28.91 -47.39L28.91 -95.17L4.09 -95.17L4.09 -93.32ZM107.18 -28.25Q107.18 -32.6 107.65 -37.62Q108.11 -42.64 109.56 -46.86Q111.01 -51.08 113.92 -53.86Q116.82 -56.63 121.7 -56.63Q125.14 -56.63 127.38 -55.18Q129.62 -53.72 131.08 -50.42Q132.53 -47.12 133.12 -41.65Q133.72 -36.17 133.72 -28.25Q133.72 -21.78 133.39 -16.57Q133.06 -11.35 131.93 -7.66Q130.81 -3.96 128.63 -1.98Q126.46 0 122.76 0Q117.22 0 114.11 -2.84Q111.01 -5.68 109.43 -9.97Q107.84 -14.26 107.51 -19.21Q107.18 -24.16 107.18 -28.25ZM91.08 -93.32L91.08 -1.85L82.37 -1.85L82.37 0L106.92 0L106.92 -9.77L107.18 -9.77Q109.3 -4.22 113.06 -1.25Q116.82 1.72 122.76 1.72Q129.23 1.72 134.51 -0.79Q139.79 -3.3 143.55 -7.46Q147.31 -11.62 149.42 -17.03Q151.54 -22.44 151.54 -28.38Q151.54 -33 149.89 -38.28Q148.24 -43.56 144.74 -48.05Q141.24 -52.54 135.83 -55.51Q130.42 -58.48 122.76 -58.48Q116.82 -58.48 113.12 -55.7Q109.43 -52.93 107.45 -47.39L107.18 -47.39L107.18 -95.17L82.37 -95.17L82.37 -93.32ZM196.81 -32.74L196.81 -15.31Q196.81 -11.48 196.02 -8.78Q195.23 -6.07 193.91 -4.42Q192.59 -2.77 190.94 -1.98Q189.29 -1.19 187.57 -1.19Q184.54 -1.19 182.82 -2.57Q181.1 -3.96 180.25 -5.94Q179.39 -7.92 179.19 -10.03Q178.99 -12.14 178.99 -13.73Q178.99 -17.69 180.25 -20.2Q181.5 -22.7 183.48 -24.42Q185.46 -26.14 187.97 -27.26Q190.48 -28.38 192.98 -29.57Q194.83 -30.49 195.56 -31.22Q196.28 -31.94 196.55 -32.74ZM223.48 -2.11L222.29 -3.3Q221.23 -2.11 220.11 -1.45Q218.99 -0.79 217.27 -0.79Q214.37 -0.79 213.64 -2.71Q212.92 -4.62 212.92 -7.13L212.92 -39.86Q212.92 -45.41 211 -49.04Q209.09 -52.67 205.85 -54.78Q202.62 -56.89 198.2 -57.68Q193.78 -58.48 188.76 -58.48Q184.4 -58.48 180.38 -57.55Q176.35 -56.63 173.18 -54.85Q170.02 -53.06 168.1 -50.36Q166.19 -47.65 166.19 -44.22Q166.19 -41.98 166.91 -40.66Q167.64 -39.34 168.7 -38.61Q169.75 -37.88 171.14 -37.69Q172.52 -37.49 173.84 -37.49Q174.77 -37.49 176.15 -37.55Q177.54 -37.62 178.79 -38.15Q180.05 -38.68 180.97 -39.8Q181.9 -40.92 181.9 -42.9Q181.9 -43.3 181.76 -44.35Q181.63 -45.41 181.5 -46.6Q181.37 -47.78 181.24 -48.77Q181.1 -49.76 181.1 -50.16Q181.1 -53.86 183.35 -55.24Q185.59 -56.63 188.63 -56.63Q193.38 -56.63 195.1 -53.72Q196.81 -50.82 196.81 -47.26L196.81 -39.2Q196.81 -36.7 196.09 -35.11Q195.36 -33.53 193.51 -32.27Q191.66 -31.02 188.3 -29.9Q184.93 -28.78 179.52 -27.19Q176.22 -26.14 173.12 -25.01Q170.02 -23.89 167.57 -22.11Q165.13 -20.33 163.61 -17.75Q162.1 -15.18 162.1 -11.35Q162.1 -7.66 163.81 -5.08Q165.53 -2.51 168.3 -1.06Q171.07 0.4 174.37 1.06Q177.67 1.72 180.84 1.72Q187.84 1.72 191.53 -0.13Q195.23 -1.98 197.34 -7.26L197.6 -7.26Q198.4 -3.04 201.63 -0.66Q204.86 1.72 211.6 1.72Q214.63 1.72 218.13 1.19Q221.63 0.66 223.48 -2.11ZM230.6 -1.85L230.6 0L263.74 0L263.74 -1.85L255.42 -1.85L255.42 -30.1Q255.42 -36.17 256.74 -40.66Q258.06 -45.14 260.24 -48.18Q262.42 -51.22 265.32 -52.73Q268.22 -54.25 271.39 -54.25Q275.22 -54.25 277.46 -51.68Q279.71 -49.1 279.71 -43.56L279.71 -1.85L271.52 -1.85L271.52 0L304.66 0L304.66 -1.85L295.81 -1.85L295.81 -39.07Q295.81 -47.78 290.99 -52.8Q286.18 -57.82 277.46 -57.82Q271.52 -57.82 267.56 -56.03Q263.6 -54.25 261.1 -51.88Q258.59 -49.5 257.27 -47.06Q255.95 -44.62 255.42 -43.43L255.16 -43.43L255.16 -56.63L230.6 -56.63L230.6 -54.78L239.32 -54.78L239.32 -1.85ZM326.7 20.59Q326.7 15.31 328.88 12.14Q331.06 8.98 335.02 5.81L348.74 5.81Q350.72 5.81 353.1 6.34Q355.48 6.86 357.46 8.32Q359.44 9.77 360.76 12.21Q362.08 14.65 362.08 18.61Q362.08 22.57 360.49 25.87Q358.91 29.17 356.33 31.55Q353.76 33.92 350.33 35.24Q346.9 36.56 343.07 36.56Q338.05 36.56 334.88 34.98Q331.72 33.4 329.87 30.95Q328.02 28.51 327.36 25.74Q326.7 22.97 326.7 20.59ZM342.01 -22.04Q339.77 -22.04 337.79 -22.57Q335.81 -23.1 334.42 -25.01Q333.04 -26.93 332.24 -30.62Q331.45 -34.32 331.45 -40.52Q331.45 -43.56 331.85 -46.46Q332.24 -49.37 333.37 -51.61Q334.49 -53.86 336.6 -55.24Q338.71 -56.63 342.01 -56.63Q345.58 -56.63 347.56 -55.31Q349.54 -53.99 350.59 -51.61Q351.65 -49.24 351.91 -46Q352.18 -42.77 352.18 -38.94Q352.18 -33.53 351.45 -30.16Q350.72 -26.8 349.4 -25.01Q348.08 -23.23 346.24 -22.64Q344.39 -22.04 342.01 -22.04ZM345.97 -9.37L331.45 -9.37Q326.96 -9.37 324.32 -10.96Q321.68 -12.54 321.68 -15.84Q321.68 -17.29 322.34 -19.07Q323 -20.86 326.83 -23.36Q329.47 -22.31 333.56 -21.25Q337.66 -20.2 342.94 -20.2Q349.54 -20.2 354.02 -21.85Q358.51 -23.5 361.35 -26.14Q364.19 -28.78 365.44 -32.01Q366.7 -35.24 366.7 -38.54Q366.7 -43.96 364.85 -46.79Q363 -49.63 361.42 -51.35Q364.06 -53.2 365.11 -53.79Q366.17 -54.38 366.96 -54.38Q368.41 -54.38 368.68 -53.46Q368.94 -52.54 369.2 -50.69Q369.34 -50.16 369.53 -49.3Q369.73 -48.44 370.33 -47.72Q370.92 -46.99 372.04 -46.46Q373.16 -45.94 375.01 -45.94Q377.65 -45.94 379.24 -47.45Q380.82 -48.97 380.82 -51.61Q380.82 -54.65 378.91 -56.56Q376.99 -58.48 373.16 -58.48Q368.81 -58.48 366.17 -56.96Q363.53 -55.44 360.23 -52.4Q357.19 -54.78 352.9 -56.63Q348.61 -58.48 342.67 -58.48Q336.73 -58.48 331.91 -56.89Q327.1 -55.31 323.8 -52.6Q320.5 -49.9 318.71 -46.27Q316.93 -42.64 316.93 -38.54Q316.93 -35.64 317.79 -33.46Q318.65 -31.28 319.9 -29.63Q321.16 -27.98 322.61 -26.73Q324.06 -25.48 325.25 -24.55Q321.16 -22.31 318.71 -19.8Q316.27 -17.29 315.08 -14.98Q313.9 -12.67 313.57 -10.96Q313.24 -9.24 313.24 -8.58Q313.24 -4.49 315.22 -1.72Q317.2 1.06 320.1 2.64Q323 4.22 326.37 4.88Q329.74 5.54 332.38 5.54L332.38 5.81Q329.34 6.6 326.24 8.05Q323.14 9.5 320.56 11.55Q317.99 13.6 316.4 16.37Q314.82 19.14 314.82 22.7Q314.82 24.55 315.61 27.26Q316.4 29.96 319.04 32.54Q321.68 35.11 326.63 36.96Q331.58 38.81 339.9 38.81Q347.29 38.81 353.03 36.43Q358.78 34.06 362.87 30.23Q366.96 26.4 369.07 21.52Q371.18 16.63 371.18 11.48Q371.18 5.41 369.07 1.39Q366.96 -2.64 363.53 -5.02Q360.1 -7.39 355.54 -8.38Q350.99 -9.37 345.97 -9.37ZM384.78 -8.05Q384.78 -4.22 387.55 -1.52Q390.32 1.19 394.15 1.19Q397.98 1.19 400.75 -1.52Q403.52 -4.22 403.52 -8.05Q403.52 -11.88 400.75 -14.65Q397.98 -17.42 394.15 -17.42Q390.32 -17.42 387.55 -14.65Q384.78 -11.88 384.78 -8.05ZM461.87 -28.25Q461.87 -24.16 461.54 -19.21Q461.21 -14.26 459.62 -9.97Q458.04 -5.68 454.94 -2.84Q451.84 0 446.29 0Q442.6 0 440.42 -1.98Q438.24 -3.96 437.12 -7.66Q436 -11.35 435.67 -16.57Q435.34 -21.78 435.34 -28.25Q435.34 -36.17 435.93 -41.65Q436.52 -47.12 437.98 -50.42Q439.43 -53.72 441.74 -55.18Q444.05 -56.63 447.35 -56.63Q452.23 -56.63 455.14 -53.86Q458.04 -51.08 459.49 -46.86Q460.94 -42.64 461.41 -37.62Q461.87 -32.6 461.87 -28.25ZM477.97 -1.85L477.97 -95.17L452.89 -95.17L452.89 -93.32L461.87 -93.32L461.87 -47.39L461.6 -47.39Q459.62 -52.93 455.93 -55.7Q452.23 -58.48 446.29 -58.48Q438.64 -58.48 433.22 -55.51Q427.81 -52.54 424.31 -48.05Q420.82 -43.56 419.17 -38.28Q417.52 -33 417.52 -28.38Q417.52 -22.44 419.63 -17.03Q421.74 -11.62 425.5 -7.46Q429.26 -3.3 434.54 -0.79Q439.82 1.72 446.29 1.72Q452.23 1.72 455.99 -1.25Q459.76 -4.22 461.87 -9.77L462.13 -9.77L462.13 0L486.68 0L486.68 -1.85ZM534.34 -34.98L513.22 -34.98Q513.35 -38.41 513.68 -42.17Q514.01 -45.94 515.2 -49.17Q516.38 -52.4 518.83 -54.52Q521.27 -56.63 525.76 -56.63Q528.92 -56.63 530.71 -55.18Q532.49 -53.72 533.28 -51.61Q534.07 -49.5 534.2 -47.39Q534.34 -45.28 534.34 -43.82ZM513.22 -33.13L552.16 -33.13Q552.16 -39.86 549.78 -44.68Q547.4 -49.5 543.71 -52.54Q540.01 -55.57 535.39 -57.02Q530.77 -58.48 526.15 -58.48Q519.68 -58.48 514.07 -55.9Q508.46 -53.33 504.31 -49.17Q500.15 -45.01 497.77 -39.6Q495.4 -34.19 495.4 -28.51Q495.4 -21.38 497.9 -15.77Q500.41 -10.16 504.83 -6.27Q509.26 -2.38 515.2 -0.33Q521.14 1.72 528 1.72Q533.81 1.72 537.9 0.07Q541.99 -1.58 544.76 -4.03Q547.54 -6.47 549.12 -9.31Q550.7 -12.14 551.36 -14.65L549.52 -15.31Q549.38 -14.12 548.26 -11.62Q547.14 -9.11 544.83 -6.53Q542.52 -3.96 538.89 -1.98Q535.26 0 529.98 0Q524.04 0 520.74 -2.51Q517.44 -5.02 515.72 -8.91Q514.01 -12.8 513.61 -17.62Q513.22 -22.44 513.22 -27.19ZM553.74 -56.63L553.74 -54.78L560.87 -54.78L587.14 3.56L588.19 3.56L611.56 -54.78L617.63 -54.78L617.63 -56.63L599.15 -56.63L599.15 -54.78L609.31 -54.78L594.92 -18.22L578.69 -54.78L588.19 -54.78L588.19 -56.63Z"/></g>
    <g transform="translate(92 467.66)"><path d="M1.32 -0.56L5.76 -0.56L5.76 -27.92L1.32 -27.92L1.32 -28.48L14.2 -28.48L14.2 -27.92L9.76 -27.92L9.76 -0.56L14.2 -0.56L14.2 0L1.32 0ZM16.52 -0.56L19.6 -0.56L19.6 -16.6L16.52 -16.6L16.52 -17.16L22.96 -17.16L22.96 -12.88L23.04 -12.88Q23.28 -13.4 23.74 -14.2Q24.2 -15 25 -15.76Q25.8 -16.52 27 -17.06Q28.2 -17.6 29.92 -17.6Q32.56 -17.6 34.22 -16.32Q35.88 -15.04 35.88 -12.24L35.88 -0.56L38.96 -0.56L38.96 0L29.36 0L29.36 -0.56L32.44 -0.56L32.44 -13.48Q32.44 -15.04 31.7 -16.04Q30.96 -17.04 29.4 -17.04Q28.12 -17.04 26.96 -16.48Q25.8 -15.92 24.92 -14.92Q24.04 -13.92 23.54 -12.56Q23.04 -11.2 23.04 -9.6L23.04 -0.56L26.12 -0.56L26.12 0L16.52 0ZM51.76 -17.16L54.84 -17.16L54.84 -22.32Q55.16 -22.2 55.44 -22.12Q55.72 -22.04 56.4 -22.04Q57 -22.04 57.44 -22.18Q57.88 -22.32 58.28 -22.64L58.28 -17.16L63.96 -17.16L63.96 -16.6L58.28 -16.6L58.28 -3.52Q58.28 -2.4 58.5 -1.7Q58.72 -1 59.08 -0.62Q59.44 -0.24 59.86 -0.12Q60.28 0 60.68 0Q62.08 0 62.94 -1.02Q63.8 -2.04 64.04 -3.36L64.6 -3.16Q64.48 -2.64 64.24 -2Q64 -1.36 63.5 -0.78Q63 -0.2 62.2 0.18Q61.4 0.56 60.2 0.56Q57.2 0.56 56.02 -0.6Q54.84 -1.76 54.84 -3.88L54.84 -16.6L51.76 -16.6ZM65.4 -0.56L68.48 -0.56L68.48 -28.28L65.4 -28.28L65.4 -28.84L71.92 -28.84L71.92 -13.12L72 -13.12Q72.2 -13.64 72.68 -14.42Q73.16 -15.2 73.98 -15.9Q74.8 -16.6 75.98 -17.1Q77.16 -17.6 78.8 -17.6Q81.44 -17.6 83.1 -16.32Q84.76 -15.04 84.76 -12.24L84.76 -0.56L87.84 -0.56L87.84 0L78.24 0L78.24 -0.56L81.32 -0.56L81.32 -13.48Q81.32 -15.04 80.58 -16.04Q79.84 -17.04 78.28 -17.04Q77 -17.04 75.84 -16.48Q74.68 -15.92 73.8 -14.92Q72.92 -13.92 72.42 -12.56Q71.92 -11.2 71.92 -9.6L71.92 -0.56L75 -0.56L75 0L65.4 0ZM102.92 -10.48Q103 -11.04 103 -11.52Q103 -12 103 -12.52Q103 -13.88 102.74 -14.76Q102.48 -15.64 102.02 -16.16Q101.56 -16.68 100.9 -16.9Q100.24 -17.12 99.48 -17.12Q98.12 -17.12 97.24 -16.58Q96.36 -16.04 95.84 -15.12Q95.32 -14.2 95.06 -13Q94.8 -11.8 94.72 -10.48ZM94.68 -9.92Q94.68 -9.52 94.66 -9.1Q94.64 -8.68 94.64 -8.04Q94.64 -6.72 94.8 -5.28Q94.96 -3.84 95.5 -2.68Q96.04 -1.52 97.1 -0.76Q98.16 0 99.92 0Q101.68 0 102.82 -0.52Q103.96 -1.04 104.62 -1.78Q105.28 -2.52 105.6 -3.28Q105.92 -4.04 106.08 -4.52L106.68 -4.4Q106.56 -3.96 106.22 -3.14Q105.88 -2.32 105.14 -1.5Q104.4 -0.68 103.14 -0.06Q101.88 0.56 99.88 0.56Q97.88 0.56 96.18 -0.08Q94.48 -0.72 93.24 -1.92Q92 -3.12 91.32 -4.78Q90.64 -6.44 90.64 -8.48Q90.64 -10.24 91.34 -11.9Q92.04 -13.56 93.26 -14.84Q94.48 -16.12 96.12 -16.9Q97.76 -17.68 99.64 -17.68Q100.76 -17.68 102.04 -17.28Q103.32 -16.88 104.42 -15.98Q105.52 -15.08 106.26 -13.6Q107 -12.12 107 -9.92ZM137.6 -9.16Q137.6 -11 137.4 -12.46Q137.2 -13.92 136.7 -14.96Q136.2 -16 135.3 -16.56Q134.4 -17.12 133 -17.12Q131.52 -17.12 130.56 -16.6Q129.6 -16.08 129 -15.28Q128.56 -14.72 128.3 -14.08Q128.04 -13.44 127.88 -12.56Q127.72 -11.68 127.66 -10.54Q127.6 -9.4 127.6 -7.84Q127.6 -6.52 127.8 -5.12Q128 -3.72 128.56 -2.58Q129.12 -1.44 130.14 -0.72Q131.16 0 132.84 0Q134.48 0 135.44 -0.64Q136.4 -1.28 136.88 -2.48Q137.36 -3.68 137.48 -5.38Q137.6 -7.08 137.6 -9.16ZM121.08 10.64L124.16 10.64L124.16 -16.6L121.08 -16.6L121.08 -17.16L127.52 -17.16L127.52 -13.8L127.6 -13.8Q128.2 -15.48 129.58 -16.58Q130.96 -17.68 133.16 -17.68Q134.88 -17.68 136.4 -16.94Q137.92 -16.2 139.08 -14.98Q140.24 -13.76 140.92 -12.12Q141.6 -10.48 141.6 -8.68Q141.6 -6.84 140.9 -5.18Q140.2 -3.52 139 -2.24Q137.8 -0.96 136.22 -0.2Q134.64 0.56 132.88 0.56Q131.52 0.56 130.58 0.1Q129.64 -0.36 129.04 -0.98Q128.44 -1.6 128.12 -2.26Q127.8 -2.92 127.68 -3.32L127.6 -3.32L127.6 10.64L130.68 10.64L130.68 11.2L121.08 11.2ZM149.48 -8.56Q149.48 -5.72 149.92 -4.04Q150.36 -2.36 151.08 -1.46Q151.8 -0.56 152.76 -0.28Q153.72 0 154.8 0Q155.88 0 156.84 -0.28Q157.8 -0.56 158.52 -1.46Q159.24 -2.36 159.68 -4.04Q160.12 -5.72 160.12 -8.56Q160.12 -10.96 159.8 -12.58Q159.48 -14.2 158.82 -15.22Q158.16 -16.24 157.16 -16.68Q156.16 -17.12 154.8 -17.12Q153.44 -17.12 152.44 -16.68Q151.44 -16.24 150.78 -15.22Q150.12 -14.2 149.8 -12.58Q149.48 -10.96 149.48 -8.56ZM145.48 -8.56Q145.48 -10.52 146.34 -12.2Q147.2 -13.88 148.54 -15.1Q149.88 -16.32 151.54 -17Q153.2 -17.68 154.8 -17.68Q156.4 -17.68 158.06 -17Q159.72 -16.32 161.06 -15.1Q162.4 -13.88 163.26 -12.2Q164.12 -10.52 164.12 -8.56Q164.12 -6.68 163.32 -5.02Q162.52 -3.36 161.22 -2.12Q159.92 -0.88 158.24 -0.16Q156.56 0.56 154.8 0.56Q153.04 0.56 151.36 -0.16Q149.68 -0.88 148.38 -2.12Q147.08 -3.36 146.28 -5.02Q145.48 -6.68 145.48 -8.56ZM165.36 -17.16L175 -17.16L175 -16.6L171.68 -16.6L176.16 -4.12L180.32 -14L179.32 -16.6L177.64 -16.6L177.64 -17.16L185.6 -17.16L185.6 -16.6L182.92 -16.6L187.56 -4.2L192.56 -16.6L188.8 -16.6L188.8 -17.16L195.32 -17.16L195.32 -16.6L193.2 -16.6L186.04 1.32L180.6 -13.2L174.52 1.32L168.08 -16.6L165.36 -16.6ZM208.84 -10.48Q208.92 -11.04 208.92 -11.52Q208.92 -12 208.92 -12.52Q208.92 -13.88 208.66 -14.76Q208.4 -15.64 207.94 -16.16Q207.48 -16.68 206.82 -16.9Q206.16 -17.12 205.4 -17.12Q204.04 -17.12 203.16 -16.58Q202.28 -16.04 201.76 -15.12Q201.24 -14.2 200.98 -13Q200.72 -11.8 200.64 -10.48ZM200.6 -9.92Q200.6 -9.52 200.58 -9.1Q200.56 -8.68 200.56 -8.04Q200.56 -6.72 200.72 -5.28Q200.88 -3.84 201.42 -2.68Q201.96 -1.52 203.02 -0.76Q204.08 0 205.84 0Q207.6 0 208.74 -0.52Q209.88 -1.04 210.54 -1.78Q211.2 -2.52 211.52 -3.28Q211.84 -4.04 212 -4.52L212.6 -4.4Q212.48 -3.96 212.14 -3.14Q211.8 -2.32 211.06 -1.5Q210.32 -0.68 209.06 -0.06Q207.8 0.56 205.8 0.56Q203.8 0.56 202.1 -0.08Q200.4 -0.72 199.16 -1.92Q197.92 -3.12 197.24 -4.78Q196.56 -6.44 196.56 -8.48Q196.56 -10.24 197.26 -11.9Q197.96 -13.56 199.18 -14.84Q200.4 -16.12 202.04 -16.9Q203.68 -17.68 205.56 -17.68Q206.68 -17.68 207.96 -17.28Q209.24 -16.88 210.34 -15.98Q211.44 -15.08 212.18 -13.6Q212.92 -12.12 212.92 -9.92ZM215.84 -0.56L218.92 -0.56L218.92 -16.6L215.84 -16.6L215.84 -17.16L222.28 -17.16L222.28 -13.12L222.36 -13.12Q222.52 -13.72 222.88 -14.48Q223.24 -15.24 223.88 -15.94Q224.52 -16.64 225.42 -17.12Q226.32 -17.6 227.6 -17.6Q228.52 -17.6 229.2 -17.3Q229.88 -17 230.32 -16.54Q230.76 -16.08 230.96 -15.48Q231.16 -14.88 231.16 -14.28Q231.16 -12.96 230.56 -12.52Q229.96 -12.08 229.16 -12.08Q227.4 -12.08 227.4 -13.2Q227.4 -13.56 227.48 -13.78Q227.56 -14 227.66 -14.22Q227.76 -14.44 227.84 -14.72Q227.92 -15 227.92 -15.52Q227.92 -16.8 226.52 -16.8Q225.88 -16.8 225.16 -16.32Q224.44 -15.84 223.82 -14.92Q223.2 -14 222.78 -12.7Q222.36 -11.4 222.36 -9.72L222.36 -0.56L225.84 -0.56L225.84 0L215.84 0ZM247.96 -8.56Q247.96 -5.72 248.4 -4.04Q248.84 -2.36 249.56 -1.46Q250.28 -0.56 251.24 -0.28Q252.2 0 253.28 0Q254.36 0 255.32 -0.28Q256.28 -0.56 257 -1.46Q257.72 -2.36 258.16 -4.04Q258.6 -5.72 258.6 -8.56Q258.6 -10.96 258.28 -12.58Q257.96 -14.2 257.3 -15.22Q256.64 -16.24 255.64 -16.68Q254.64 -17.12 253.28 -17.12Q251.92 -17.12 250.92 -16.68Q249.92 -16.24 249.26 -15.22Q248.6 -14.2 248.28 -12.58Q247.96 -10.96 247.96 -8.56ZM243.96 -8.56Q243.96 -10.52 244.82 -12.2Q245.68 -13.88 247.02 -15.1Q248.36 -16.32 250.02 -17Q251.68 -17.68 253.28 -17.68Q254.88 -17.68 256.54 -17Q258.2 -16.32 259.54 -15.1Q260.88 -13.88 261.74 -12.2Q262.6 -10.52 262.6 -8.56Q262.6 -6.68 261.8 -5.02Q261 -3.36 259.7 -2.12Q258.4 -0.88 256.72 -0.16Q255.04 0.56 253.28 0.56Q251.52 0.56 249.84 -0.16Q248.16 -0.88 246.86 -2.12Q245.56 -3.36 244.76 -5.02Q243.96 -6.68 243.96 -8.56ZM265.52 -0.56L268.6 -0.56L268.6 -16.6L265.52 -16.6L265.52 -17.16L268.6 -17.16L268.6 -19.28Q268.6 -20.68 268.74 -21.7Q268.88 -22.72 269.12 -23.5Q269.36 -24.28 269.68 -24.86Q270 -25.44 270.4 -25.92Q271.44 -27.24 273 -28.22Q274.56 -29.2 276.32 -29.2Q277.64 -29.2 278.58 -28.82Q279.52 -28.44 280.12 -27.88Q280.72 -27.32 281 -26.66Q281.28 -26 281.28 -25.48Q281.28 -24.72 280.84 -24.08Q280.4 -23.44 279.36 -23.44Q278.84 -23.44 278.18 -23.68Q277.52 -23.92 277.52 -24.72Q277.52 -25.4 277.9 -25.94Q278.28 -26.48 278.28 -27.16Q278.28 -28.04 277.56 -28.34Q276.84 -28.64 276.08 -28.64Q274.44 -28.64 273.24 -27.2Q272.04 -25.76 272.04 -22.72L272.04 -17.16L277 -17.16L277 -16.6L272.04 -16.6L272.04 -0.56L275.68 -0.56L275.68 0L265.52 0ZM289.92 -0.56L293 -0.56L293 -16.6L289.92 -16.6L289.92 -17.16L296.36 -17.16L296.36 -13.12L296.44 -13.12Q296.6 -13.72 296.96 -14.48Q297.32 -15.24 297.96 -15.94Q298.6 -16.64 299.5 -17.12Q300.4 -17.6 301.68 -17.6Q302.6 -17.6 303.28 -17.3Q303.96 -17 304.4 -16.54Q304.84 -16.08 305.04 -15.48Q305.24 -14.88 305.24 -14.28Q305.24 -12.96 304.64 -12.52Q304.04 -12.08 303.24 -12.08Q301.48 -12.08 301.48 -13.2Q301.48 -13.56 301.56 -13.78Q301.64 -14 301.74 -14.22Q301.84 -14.44 301.92 -14.72Q302 -15 302 -15.52Q302 -16.8 300.6 -16.8Q299.96 -16.8 299.24 -16.32Q298.52 -15.84 297.9 -14.92Q297.28 -14 296.86 -12.7Q296.44 -11.4 296.44 -9.72L296.44 -0.56L299.92 -0.56L299.92 0L289.92 0ZM319.2 -10.48Q319.28 -11.04 319.28 -11.52Q319.28 -12 319.28 -12.52Q319.28 -13.88 319.02 -14.76Q318.76 -15.64 318.3 -16.16Q317.84 -16.68 317.18 -16.9Q316.52 -17.12 315.76 -17.12Q314.4 -17.12 313.52 -16.58Q312.64 -16.04 312.12 -15.12Q311.6 -14.2 311.34 -13Q311.08 -11.8 311 -10.48ZM310.96 -9.92Q310.96 -9.52 310.94 -9.1Q310.92 -8.68 310.92 -8.04Q310.92 -6.72 311.08 -5.28Q311.24 -3.84 311.78 -2.68Q312.32 -1.52 313.38 -0.76Q314.44 0 316.2 0Q317.96 0 319.1 -0.52Q320.24 -1.04 320.9 -1.78Q321.56 -2.52 321.88 -3.28Q322.2 -4.04 322.36 -4.52L322.96 -4.4Q322.84 -3.96 322.5 -3.14Q322.16 -2.32 321.42 -1.5Q320.68 -0.68 319.42 -0.06Q318.16 0.56 316.16 0.56Q314.16 0.56 312.46 -0.08Q310.76 -0.72 309.52 -1.92Q308.28 -3.12 307.6 -4.78Q306.92 -6.44 306.92 -8.48Q306.92 -10.24 307.62 -11.9Q308.32 -13.56 309.54 -14.84Q310.76 -16.12 312.4 -16.9Q314.04 -17.68 315.92 -17.68Q317.04 -17.68 318.32 -17.28Q319.6 -16.88 320.7 -15.98Q321.8 -15.08 322.54 -13.6Q323.28 -12.12 323.28 -9.92ZM342.96 -4.4Q342.84 -3.96 342.5 -3.14Q342.16 -2.32 341.42 -1.5Q340.68 -0.68 339.42 -0.06Q338.16 0.56 336.16 0.56Q334.64 0.56 333 0.08Q331.36 -0.4 330 -1.46Q328.64 -2.52 327.78 -4.24Q326.92 -5.96 326.92 -8.48Q326.92 -10.44 327.66 -12.12Q328.4 -13.8 329.66 -15.04Q330.92 -16.28 332.62 -16.98Q334.32 -17.68 336.24 -17.68Q337.32 -17.68 338.46 -17.42Q339.6 -17.16 340.54 -16.62Q341.48 -16.08 342.1 -15.22Q342.72 -14.36 342.72 -13.12Q342.72 -12.28 342.18 -11.74Q341.64 -11.2 340.64 -11.2Q339.96 -11.2 339.34 -11.5Q338.72 -11.8 338.72 -12.52Q338.72 -13.08 339 -13.88Q339.28 -14.68 339.28 -15.2Q339.28 -16.12 338.36 -16.62Q337.44 -17.12 336.24 -17.12Q335.36 -17.12 334.42 -16.9Q333.48 -16.68 332.7 -15.8Q331.92 -14.92 331.42 -13.16Q330.92 -11.4 330.92 -8.36Q330.92 -6.64 331.14 -5.12Q331.36 -3.6 331.94 -2.46Q332.52 -1.32 333.54 -0.66Q334.56 0 336.2 0Q337.96 0 339.1 -0.52Q340.24 -1.04 340.9 -1.78Q341.56 -2.52 341.88 -3.28Q342.2 -4.04 342.36 -4.52ZM350.16 -8.56Q350.16 -5.72 350.6 -4.04Q351.04 -2.36 351.76 -1.46Q352.48 -0.56 353.44 -0.28Q354.4 0 355.48 0Q356.56 0 357.52 -0.28Q358.48 -0.56 359.2 -1.46Q359.92 -2.36 360.36 -4.04Q360.8 -5.72 360.8 -8.56Q360.8 -10.96 360.48 -12.58Q360.16 -14.2 359.5 -15.22Q358.84 -16.24 357.84 -16.68Q356.84 -17.12 355.48 -17.12Q354.12 -17.12 353.12 -16.68Q352.12 -16.24 351.46 -15.22Q350.8 -14.2 350.48 -12.58Q350.16 -10.96 350.16 -8.56ZM346.16 -8.56Q346.16 -10.52 347.02 -12.2Q347.88 -13.88 349.22 -15.1Q350.56 -16.32 352.22 -17Q353.88 -17.68 355.48 -17.68Q357.08 -17.68 358.74 -17Q360.4 -16.32 361.74 -15.1Q363.08 -13.88 363.94 -12.2Q364.8 -10.52 364.8 -8.56Q364.8 -6.68 364 -5.02Q363.2 -3.36 361.9 -2.12Q360.6 -0.88 358.92 -0.16Q357.24 0.56 355.48 0.56Q353.72 0.56 352.04 -0.16Q350.36 -0.88 349.06 -2.12Q347.76 -3.36 346.96 -5.02Q346.16 -6.68 346.16 -8.56ZM367.68 -0.56L370.76 -0.56L370.76 -16.6L367.68 -16.6L367.68 -17.16L374.12 -17.16L374.12 -13.12L374.2 -13.12Q374.36 -13.72 374.72 -14.48Q375.08 -15.24 375.72 -15.94Q376.36 -16.64 377.26 -17.12Q378.16 -17.6 379.44 -17.6Q380.36 -17.6 381.04 -17.3Q381.72 -17 382.16 -16.54Q382.6 -16.08 382.8 -15.48Q383 -14.88 383 -14.28Q383 -12.96 382.4 -12.52Q381.8 -12.08 381 -12.08Q379.24 -12.08 379.24 -13.2Q379.24 -13.56 379.32 -13.78Q379.4 -14 379.5 -14.22Q379.6 -14.44 379.68 -14.72Q379.76 -15 379.76 -15.52Q379.76 -16.8 378.36 -16.8Q377.72 -16.8 377 -16.32Q376.28 -15.84 375.66 -14.92Q375.04 -14 374.62 -12.7Q374.2 -11.4 374.2 -9.72L374.2 -0.56L377.68 -0.56L377.68 0L367.68 0ZM388.96 -9.16Q388.96 -7.08 389.08 -5.38Q389.2 -3.68 389.68 -2.48Q390.16 -1.28 391.12 -0.64Q392.08 0 393.72 0Q395.4 0 396.42 -0.72Q397.44 -1.44 398 -2.58Q398.56 -3.72 398.76 -5.12Q398.96 -6.52 398.96 -7.84Q398.96 -9.4 398.9 -10.54Q398.84 -11.68 398.68 -12.56Q398.52 -13.44 398.24 -14.08Q397.96 -14.72 397.56 -15.28Q396.96 -16.08 396 -16.6Q395.04 -17.12 393.56 -17.12Q392.16 -17.12 391.26 -16.56Q390.36 -16 389.86 -14.96Q389.36 -13.92 389.16 -12.46Q388.96 -11 388.96 -9.16ZM395.88 -28.84L402.4 -28.84L402.4 -0.56L405.48 -0.56L405.48 0L399.04 0L399.04 -3.48L398.96 -3.48Q398.8 -3 398.48 -2.32Q398.16 -1.64 397.54 -1Q396.92 -0.36 395.98 0.1Q395.04 0.56 393.68 0.56Q391.92 0.56 390.34 -0.2Q388.76 -0.96 387.56 -2.24Q386.36 -3.52 385.66 -5.18Q384.96 -6.84 384.96 -8.68Q384.96 -10.48 385.64 -12.12Q386.32 -13.76 387.48 -14.98Q388.64 -16.2 390.16 -16.94Q391.68 -17.68 393.4 -17.68Q395.6 -17.68 396.96 -16.6Q398.32 -15.52 398.88 -13.96L398.96 -13.96L398.96 -28.28L395.88 -28.28ZM408.84 -5.6L409.28 -5.6Q409.56 -4.64 410 -3.66Q410.44 -2.68 411.18 -1.86Q411.92 -1.04 413 -0.52Q414.08 0 415.6 0Q416.88 0 417.88 -0.78Q418.88 -1.56 418.88 -3.32Q418.88 -4.84 418.1 -5.46Q417.32 -6.08 416.28 -6.44L413.16 -7.52Q412.56 -7.72 411.86 -8.02Q411.16 -8.32 410.56 -8.86Q409.96 -9.4 409.58 -10.24Q409.2 -11.08 409.2 -12.4Q409.2 -13.52 409.64 -14.48Q410.08 -15.44 410.84 -16.16Q411.6 -16.88 412.66 -17.28Q413.72 -17.68 414.96 -17.68Q415.84 -17.68 416.38 -17.54Q416.92 -17.4 417.32 -17.26Q417.72 -17.12 418.04 -16.98Q418.36 -16.84 418.8 -16.84Q419.24 -16.84 419.44 -17.16L419.88 -17.16L419.88 -12.6L419.44 -12.6Q419.16 -13.48 418.8 -14.3Q418.44 -15.12 417.94 -15.76Q417.44 -16.4 416.7 -16.76Q415.96 -17.12 414.96 -17.12Q413.04 -17.12 411.98 -16.26Q410.92 -15.4 410.92 -13.96Q410.92 -12.68 411.82 -12.02Q412.72 -11.36 414.48 -10.8L417.4 -9.84Q419.28 -9.2 420.48 -8.08Q421.68 -6.96 421.68 -5.12Q421.68 -4.04 421.26 -3Q420.84 -1.96 420.02 -1.18Q419.2 -0.4 418.02 0.08Q416.84 0.56 415.32 0.56Q414.44 0.56 413.7 0.38Q412.96 0.2 412.34 0Q411.72 -0.2 411.2 -0.38Q410.68 -0.56 410.24 -0.56Q409.8 -0.56 409.6 -0.38Q409.4 -0.2 409.28 0L408.84 0ZM425.8 6.84Q426.96 6 427.7 5.22Q428.44 4.44 428.86 3.74Q429.28 3.04 429.42 2.48Q429.56 1.92 429.56 1.52Q429.56 0.24 428.84 -0.56Q428.16 0.44 427.12 0.44Q426.36 0.44 425.64 -0.12Q424.92 -0.68 424.92 -1.72Q424.92 -2.64 425.62 -3.32Q426.32 -4 427.36 -4Q428.12 -4 428.74 -3.64Q429.36 -3.28 429.8 -2.72Q430.24 -2.16 430.46 -1.4Q430.68 -0.64 430.68 0.12Q430.68 1.28 430.2 2.42Q429.72 3.56 429.04 4.52Q428.36 5.48 427.56 6.2Q426.76 6.92 426.16 7.32ZM454.4 -9.8L454.32 -9.8Q454.24 -9.28 453 -8.76L450 -7.56Q448.72 -7.04 448.04 -6.1Q447.36 -5.16 447.36 -3.76Q447.36 -3.16 447.48 -2.52Q447.6 -1.88 447.92 -1.38Q448.24 -0.88 448.82 -0.56Q449.4 -0.24 450.32 -0.24Q451.64 -0.24 452.46 -0.8Q453.28 -1.36 453.7 -2.2Q454.12 -3.04 454.26 -4.02Q454.4 -5 454.4 -5.8ZM461.4 -0.44Q460.88 -0.04 460.16 0.26Q459.44 0.56 458.4 0.56Q456.48 0.56 455.62 -0.26Q454.76 -1.08 454.44 -2.56L454.36 -2.56Q454.2 -2.2 453.92 -1.66Q453.64 -1.12 453.06 -0.62Q452.48 -0.12 451.52 0.22Q450.56 0.56 449.08 0.56Q447.4 0.56 446.4 0.18Q445.4 -0.2 444.84 -0.76Q444.28 -1.32 444.1 -2.02Q443.92 -2.72 443.92 -3.32Q443.92 -4.72 444.48 -5.56Q445.04 -6.4 445.94 -6.9Q446.84 -7.4 447.94 -7.72Q449.04 -8.04 450.16 -8.4Q451.48 -8.84 452.34 -9.16Q453.2 -9.48 453.68 -9.94Q454.16 -10.4 454.34 -11.1Q454.52 -11.8 454.52 -13Q454.52 -13.96 454.4 -14.72Q454.28 -15.48 453.96 -16.02Q453.64 -16.56 453.04 -16.84Q452.44 -17.12 451.44 -17.12Q450.12 -17.12 449.26 -16.66Q448.4 -16.2 448.4 -15.16Q448.4 -14.48 448.52 -13.82Q448.64 -13.16 448.64 -12.84Q448.64 -12.28 448.24 -11.9Q447.84 -11.52 447.08 -11.52Q445.76 -11.52 445.44 -12Q445.12 -12.48 445.12 -13.24Q445.12 -14.12 445.52 -14.92Q445.92 -15.72 446.7 -16.34Q447.48 -16.96 448.66 -17.32Q449.84 -17.68 451.36 -17.68Q453.2 -17.68 454.44 -17.22Q455.68 -16.76 456.44 -15.98Q457.2 -15.2 457.52 -14.22Q457.84 -13.24 457.84 -12.16L457.84 -2.2Q457.84 -1.04 458.2 -0.64Q458.56 -0.24 459.24 -0.24Q459.68 -0.24 460.16 -0.4Q460.64 -0.56 461.08 -0.88ZM462.52 -0.56L465.6 -0.56L465.6 -16.6L462.52 -16.6L462.52 -17.16L468.96 -17.16L468.96 -12.88L469.04 -12.88Q469.28 -13.4 469.74 -14.2Q470.2 -15 471 -15.76Q471.8 -16.52 473 -17.06Q474.2 -17.6 475.92 -17.6Q478.56 -17.6 480.22 -16.32Q481.88 -15.04 481.88 -12.24L481.88 -0.56L484.96 -0.56L484.96 0L475.36 0L475.36 -0.56L478.44 -0.56L478.44 -13.48Q478.44 -15.04 477.7 -16.04Q476.96 -17.04 475.4 -17.04Q474.12 -17.04 472.96 -16.48Q471.8 -15.92 470.92 -14.92Q470.04 -13.92 469.54 -12.56Q469.04 -11.2 469.04 -9.6L469.04 -0.56L472.12 -0.56L472.12 0L462.52 0ZM492.04 -9.16Q492.04 -7.08 492.16 -5.38Q492.28 -3.68 492.76 -2.48Q493.24 -1.28 494.2 -0.64Q495.16 0 496.8 0Q498.48 0 499.5 -0.72Q500.52 -1.44 501.08 -2.58Q501.64 -3.72 501.84 -5.12Q502.04 -6.52 502.04 -7.84Q502.04 -9.4 501.98 -10.54Q501.92 -11.68 501.76 -12.56Q501.6 -13.44 501.32 -14.08Q501.04 -14.72 500.64 -15.28Q500.04 -16.08 499.08 -16.6Q498.12 -17.12 496.64 -17.12Q495.24 -17.12 494.34 -16.56Q493.44 -16 492.94 -14.96Q492.44 -13.92 492.24 -12.46Q492.04 -11 492.04 -9.16ZM498.96 -28.84L505.48 -28.84L505.48 -0.56L508.56 -0.56L508.56 0L502.12 0L502.12 -3.48L502.04 -3.48Q501.88 -3 501.56 -2.32Q501.24 -1.64 500.62 -1Q500 -0.36 499.06 0.1Q498.12 0.56 496.76 0.56Q495 0.56 493.42 -0.2Q491.84 -0.96 490.64 -2.24Q489.44 -3.52 488.74 -5.18Q488.04 -6.84 488.04 -8.68Q488.04 -10.48 488.72 -12.12Q489.4 -13.76 490.56 -14.98Q491.72 -16.2 493.24 -16.94Q494.76 -17.68 496.48 -17.68Q498.68 -17.68 500.04 -16.6Q501.4 -15.52 501.96 -13.96L502.04 -13.96L502.04 -28.28L498.96 -28.28ZM526.6 -8.56Q526.6 -5.72 527.04 -4.04Q527.48 -2.36 528.2 -1.46Q528.92 -0.56 529.88 -0.28Q530.84 0 531.92 0Q533 0 533.96 -0.28Q534.92 -0.56 535.64 -1.46Q536.36 -2.36 536.8 -4.04Q537.24 -5.72 537.24 -8.56Q537.24 -10.96 536.92 -12.58Q536.6 -14.2 535.94 -15.22Q535.28 -16.24 534.28 -16.68Q533.28 -17.12 531.92 -17.12Q530.56 -17.12 529.56 -16.68Q528.56 -16.24 527.9 -15.22Q527.24 -14.2 526.92 -12.58Q526.6 -10.96 526.6 -8.56ZM522.6 -8.56Q522.6 -10.52 523.46 -12.2Q524.32 -13.88 525.66 -15.1Q527 -16.32 528.66 -17Q530.32 -17.68 531.92 -17.68Q533.52 -17.68 535.18 -17Q536.84 -16.32 538.18 -15.1Q539.52 -13.88 540.38 -12.2Q541.24 -10.52 541.24 -8.56Q541.24 -6.68 540.44 -5.02Q539.64 -3.36 538.34 -2.12Q537.04 -0.88 535.36 -0.16Q533.68 0.56 531.92 0.56Q530.16 0.56 528.48 -0.16Q526.8 -0.88 525.5 -2.12Q524.2 -3.36 523.4 -5.02Q522.6 -6.68 522.6 -8.56ZM544.16 -0.56L547.24 -0.56L547.24 -16.6L544.16 -16.6L544.16 -17.16L547.24 -17.16L547.24 -19.28Q547.24 -20.68 547.38 -21.7Q547.52 -22.72 547.76 -23.5Q548 -24.28 548.32 -24.86Q548.64 -25.44 549.04 -25.92Q550.08 -27.24 551.64 -28.22Q553.2 -29.2 554.96 -29.2Q556.28 -29.2 557.22 -28.82Q558.16 -28.44 558.76 -27.88Q559.36 -27.32 559.64 -26.66Q559.92 -26 559.92 -25.48Q559.92 -24.72 559.48 -24.08Q559.04 -23.44 558 -23.44Q557.48 -23.44 556.82 -23.68Q556.16 -23.92 556.16 -24.72Q556.16 -25.4 556.54 -25.94Q556.92 -26.48 556.92 -27.16Q556.92 -28.04 556.2 -28.34Q555.48 -28.64 554.72 -28.64Q553.08 -28.64 551.88 -27.2Q550.68 -25.76 550.68 -22.72L550.68 -17.16L555.64 -17.16L555.64 -16.6L550.68 -16.6L550.68 -0.56L554.32 -0.56L554.32 0L544.16 0ZM585.12 -9.16Q585.12 -11 584.92 -12.46Q584.72 -13.92 584.22 -14.96Q583.72 -16 582.82 -16.56Q581.92 -17.12 580.52 -17.12Q579.04 -17.12 578.08 -16.6Q577.12 -16.08 576.52 -15.28Q576.08 -14.72 575.82 -14.08Q575.56 -13.44 575.4 -12.56Q575.24 -11.68 575.18 -10.54Q575.12 -9.4 575.12 -7.84Q575.12 -6.52 575.32 -5.12Q575.52 -3.72 576.08 -2.58Q576.64 -1.44 577.66 -0.72Q578.68 0 580.36 0Q582 0 582.96 -0.64Q583.92 -1.28 584.4 -2.48Q584.88 -3.68 585 -5.38Q585.12 -7.08 585.12 -9.16ZM568.6 10.64L571.68 10.64L571.68 -16.6L568.6 -16.6L568.6 -17.16L575.04 -17.16L575.04 -13.8L575.12 -13.8Q575.72 -15.48 577.1 -16.58Q578.48 -17.68 580.68 -17.68Q582.4 -17.68 583.92 -16.94Q585.44 -16.2 586.6 -14.98Q587.76 -13.76 588.44 -12.12Q589.12 -10.48 589.12 -8.68Q589.12 -6.84 588.42 -5.18Q587.72 -3.52 586.52 -2.24Q585.32 -0.96 583.74 -0.2Q582.16 0.56 580.4 0.56Q579.04 0.56 578.1 0.1Q577.16 -0.36 576.56 -0.98Q575.96 -1.6 575.64 -2.26Q575.32 -2.92 575.2 -3.32L575.12 -3.32L575.12 10.64L578.2 10.64L578.2 11.2L568.6 11.2ZM605.28 -10.48Q605.36 -11.04 605.36 -11.52Q605.36 -12 605.36 -12.52Q605.36 -13.88 605.1 -14.76Q604.84 -15.64 604.38 -16.16Q603.92 -16.68 603.26 -16.9Q602.6 -17.12 601.84 -17.12Q600.48 -17.12 599.6 -16.58Q598.72 -16.04 598.2 -15.12Q597.68 -14.2 597.42 -13Q597.16 -11.8 597.08 -10.48ZM597.04 -9.92Q597.04 -9.52 597.02 -9.1Q597 -8.68 597 -8.04Q597 -6.72 597.16 -5.28Q597.32 -3.84 597.86 -2.68Q598.4 -1.52 599.46 -0.76Q600.52 0 602.28 0Q604.04 0 605.18 -0.52Q606.32 -1.04 606.98 -1.78Q607.64 -2.52 607.96 -3.28Q608.28 -4.04 608.44 -4.52L609.04 -4.4Q608.92 -3.96 608.58 -3.14Q608.24 -2.32 607.5 -1.5Q606.76 -0.68 605.5 -0.06Q604.24 0.56 602.24 0.56Q600.24 0.56 598.54 -0.08Q596.84 -0.72 595.6 -1.92Q594.36 -3.12 593.68 -4.78Q593 -6.44 593 -8.48Q593 -10.24 593.7 -11.9Q594.4 -13.56 595.62 -14.84Q596.84 -16.12 598.48 -16.9Q600.12 -17.68 602 -17.68Q603.12 -17.68 604.4 -17.28Q605.68 -16.88 606.78 -15.98Q607.88 -15.08 608.62 -13.6Q609.36 -12.12 609.36 -9.92ZM617 -8.56Q617 -5.72 617.44 -4.04Q617.88 -2.36 618.6 -1.46Q619.32 -0.56 620.28 -0.28Q621.24 0 622.32 0Q623.4 0 624.36 -0.28Q625.32 -0.56 626.04 -1.46Q626.76 -2.36 627.2 -4.04Q627.64 -5.72 627.64 -8.56Q627.64 -10.96 627.32 -12.58Q627 -14.2 626.34 -15.22Q625.68 -16.24 624.68 -16.68Q623.68 -17.12 622.32 -17.12Q620.96 -17.12 619.96 -16.68Q618.96 -16.24 618.3 -15.22Q617.64 -14.2 617.32 -12.58Q617 -10.96 617 -8.56ZM613 -8.56Q613 -10.52 613.86 -12.2Q614.72 -13.88 616.06 -15.1Q617.4 -16.32 619.06 -17Q620.72 -17.68 622.32 -17.68Q623.92 -17.68 625.58 -17Q627.24 -16.32 628.58 -15.1Q629.92 -13.88 630.78 -12.2Q631.64 -10.52 631.64 -8.56Q631.64 -6.68 630.84 -5.02Q630.04 -3.36 628.74 -2.12Q627.44 -0.88 625.76 -0.16Q624.08 0.56 622.32 0.56Q620.56 0.56 618.88 -0.16Q617.2 -0.88 615.9 -2.12Q614.6 -3.36 613.8 -5.02Q613 -6.68 613 -8.56ZM651.08 -9.16Q651.08 -11 650.88 -12.46Q650.68 -13.92 650.18 -14.96Q649.68 -16 648.78 -16.56Q647.88 -17.12 646.48 -17.12Q645 -17.12 644.04 -16.6Q643.08 -16.08 642.48 -15.28Q642.04 -14.72 641.78 -14.08Q641.52 -13.44 641.36 -12.56Q641.2 -11.68 641.14 -10.54Q641.08 -9.4 641.08 -7.84Q641.08 -6.52 641.28 -5.12Q641.48 -3.72 642.04 -2.58Q642.6 -1.44 643.62 -0.72Q644.64 0 646.32 0Q647.96 0 648.92 -0.64Q649.88 -1.28 650.36 -2.48Q650.84 -3.68 650.96 -5.38Q651.08 -7.08 651.08 -9.16ZM634.56 10.64L637.64 10.64L637.64 -16.6L634.56 -16.6L634.56 -17.16L641 -17.16L641 -13.8L641.08 -13.8Q641.68 -15.48 643.06 -16.58Q644.44 -17.68 646.64 -17.68Q648.36 -17.68 649.88 -16.94Q651.4 -16.2 652.56 -14.98Q653.72 -13.76 654.4 -12.12Q655.08 -10.48 655.08 -8.68Q655.08 -6.84 654.38 -5.18Q653.68 -3.52 652.48 -2.24Q651.28 -0.96 649.7 -0.2Q648.12 0.56 646.36 0.56Q645 0.56 644.06 0.1Q643.12 -0.36 642.52 -0.98Q641.92 -1.6 641.6 -2.26Q641.28 -2.92 641.16 -3.32L641.08 -3.32L641.08 10.64L644.16 10.64L644.16 11.2L634.56 11.2ZM658.28 -0.56L661.36 -0.56L661.36 -28.28L658.28 -28.28L658.28 -28.84L664.8 -28.84L664.8 -0.56L667.88 -0.56L667.88 0L658.28 0ZM683.08 -10.48Q683.16 -11.04 683.16 -11.52Q683.16 -12 683.16 -12.52Q683.16 -13.88 682.9 -14.76Q682.64 -15.64 682.18 -16.16Q681.72 -16.68 681.06 -16.9Q680.4 -17.12 679.64 -17.12Q678.28 -17.12 677.4 -16.58Q676.52 -16.04 676 -15.12Q675.48 -14.2 675.22 -13Q674.96 -11.8 674.88 -10.48ZM674.84 -9.92Q674.84 -9.52 674.82 -9.1Q674.8 -8.68 674.8 -8.04Q674.8 -6.72 674.96 -5.28Q675.12 -3.84 675.66 -2.68Q676.2 -1.52 677.26 -0.76Q678.32 0 680.08 0Q681.84 0 682.98 -0.52Q684.12 -1.04 684.78 -1.78Q685.44 -2.52 685.76 -3.28Q686.08 -4.04 686.24 -4.52L686.84 -4.4Q686.72 -3.96 686.38 -3.14Q686.04 -2.32 685.3 -1.5Q684.56 -0.68 683.3 -0.06Q682.04 0.56 680.04 0.56Q678.04 0.56 676.34 -0.08Q674.64 -0.72 673.4 -1.92Q672.16 -3.12 671.48 -4.78Q670.8 -6.44 670.8 -8.48Q670.8 -10.24 671.5 -11.9Q672.2 -13.56 673.42 -14.84Q674.64 -16.12 676.28 -16.9Q677.92 -17.68 679.8 -17.68Q680.92 -17.68 682.2 -17.28Q683.48 -16.88 684.58 -15.98Q685.68 -15.08 686.42 -13.6Q687.16 -12.12 687.16 -9.92ZM690.84 -1.68Q690.84 -2.56 691.46 -3.18Q692.08 -3.8 692.96 -3.8Q693.84 -3.8 694.46 -3.18Q695.08 -2.56 695.08 -1.68Q695.08 -0.8 694.46 -0.18Q693.84 0.44 692.96 0.44Q692.08 0.44 691.46 -0.18Q690.84 -0.8 690.84 -1.68Z"/></g>
  </g>
</svg>
